<svg xmlns="http://www.w3.org/2000/svg" width="1200" height="700" viewBox="0 0 1200 700">
  <defs>
    <linearGradient id="shell" x1="0" x2="1" y1="0" y2="1">
      <stop offset="0%" stop-color="#f9fcfb" />
      <stop offset="100%" stop-color="#eef5fb" />
    </linearGradient>
    <linearGradient id="card" x1="0" x2="1">
      <stop offset="0%" stop-color="#ffffff" />
      <stop offset="100%" stop-color="#f5f8fc" />
    </linearGradient>
    <linearGradient id="accent" x1="0" x2="1">
      <stop offset="0%" stop-color="#0e6a56" />
      <stop offset="100%" stop-color="#17886f" />
    </linearGradient>
    <filter id="shadow" x="-20%" y="-20%" width="140%" height="140%">
      <feDropShadow dx="0" dy="10" stdDeviation="12" flood-color="#0c1730" flood-opacity="0.08" />
    </filter>
    <marker id="arrow" markerWidth="12" markerHeight="12" refX="10" refY="6" orient="auto">
      <path d="M0,0 L12,6 L0,12 z" fill="#3a567a" />
    </marker>
  </defs>
  <rect width="1200" height="700" fill="url(#shell)" />
  <rect x="18" y="18" width="1164" height="664" rx="28" fill="#ffffff" stroke="#d9e3ee" stroke-width="2" filter="url(#shadow)" />
  <rect x="18" y="18" width="1164" height="84" rx="28" fill="url(#accent)" />
  <g font-family="IBM Plex Sans, Arial Unicode MS, sans-serif" fill="#10213c" >
    
      <text x="600" y="68" text-anchor="middle" font-size="30" font-weight="700" fill="#ffffff" ><tspan x="600" dy="0">Worker and Lifecycle</tspan><tspan x="600" dy="24">Operation Sequence</tspan></text>
      <text x="600" y="222" text-anchor="middle" font-size="16" font-weight="600" fill="#607089">Request and event flow across the involved services</text>
      
        <rect x="32" y="116" width="176" height="64" rx="18" fill="url(#card)" stroke="#cfd9e7" />
        <text x="120" y="148" text-anchor="middle" font-size="19" font-weight="700" fill="#10213c" ><tspan x="120" dy="0">Customer/Admin UI</tspan></text>
        <line x1="120" y1="180" x2="120" y2="624" stroke="#d5deea" stroke-width="2" stroke-dasharray="8 8" />
      
        <rect x="272" y="116" width="176" height="64" rx="18" fill="url(#card)" stroke="#cfd9e7" />
        <text x="360" y="148" text-anchor="middle" font-size="19" font-weight="700" fill="#10213c" ><tspan x="360" dy="0">API</tspan></text>
        <line x1="360" y1="180" x2="360" y2="624" stroke="#d5deea" stroke-width="2" stroke-dasharray="8 8" />
      
        <rect x="512" y="116" width="176" height="64" rx="18" fill="url(#card)" stroke="#cfd9e7" />
        <text x="600" y="148" text-anchor="middle" font-size="19" font-weight="700" fill="#10213c" ><tspan x="600" dy="0">Redis</tspan></text>
        <line x1="600" y1="180" x2="600" y2="624" stroke="#d5deea" stroke-width="2" stroke-dasharray="8 8" />
      
        <rect x="752" y="116" width="176" height="64" rx="18" fill="url(#card)" stroke="#cfd9e7" />
        <text x="840" y="148" text-anchor="middle" font-size="19" font-weight="700" fill="#10213c" ><tspan x="840" dy="0">Worker</tspan></text>
        <line x1="840" y1="180" x2="840" y2="624" stroke="#d5deea" stroke-width="2" stroke-dasharray="8 8" />
      
        <rect x="992" y="116" width="176" height="64" rx="18" fill="url(#card)" stroke="#cfd9e7" />
        <text x="1080" y="148" text-anchor="middle" font-size="19" font-weight="700" fill="#10213c" ><tspan x="1080" dy="0">PostgreSQL</tspan></text>
        <line x1="1080" y1="180" x2="1080" y2="624" stroke="#d5deea" stroke-width="2" stroke-dasharray="8 8" />
      
      
          <line x1="120" y1="242" x2="360" y2="242" stroke="#3a567a" stroke-width="3" marker-end="url(#arrow)" />
          <rect x="138" y="214" width="204" height="26" rx="13" fill="#f3f7fb" />
          <text x="240" y="230" text-anchor="middle" font-size="13" font-weight="600" fill="#445875" ><tspan x="240" dy="0">Request instance operation</tspan></text>
        
          <line x1="360" y1="304" x2="1080" y2="304" stroke="#3a567a" stroke-width="3" marker-end="url(#arrow)" />
          <rect x="378" y="276" width="684" height="26" rx="13" fill="#f3f7fb" />
          <text x="720" y="292" text-anchor="middle" font-size="13" font-weight="600" fill="#445875" ><tspan x="720" dy="0">Persist pending operation</tspan></text>
        
          <line x1="360" y1="366" x2="600" y2="366" stroke="#3a567a" stroke-width="3" marker-end="url(#arrow)" />
          <rect x="378" y="338" width="204" height="26" rx="13" fill="#f3f7fb" />
          <text x="480" y="354" text-anchor="middle" font-size="13" font-weight="600" fill="#445875" ><tspan x="480" dy="0">Enqueue job</tspan></text>
        
          <line x1="600" y1="428" x2="840" y2="428" stroke="#3a567a" stroke-width="3" marker-end="url(#arrow)" />
          <rect x="618" y="400" width="204" height="26" rx="13" fill="#f3f7fb" />
          <text x="720" y="416" text-anchor="middle" font-size="13" font-weight="600" fill="#445875" ><tspan x="720" dy="0">Deliver work</tspan></text>
        
          <line x1="840" y1="490" x2="1080" y2="490" stroke="#3a567a" stroke-width="3" marker-end="url(#arrow)" />
          <rect x="858" y="462" width="204" height="26" rx="13" fill="#f3f7fb" />
          <text x="960" y="478" text-anchor="middle" font-size="13" font-weight="600" fill="#445875" ><tspan x="960" dy="0">Update runtime and operation</tspan><tspan x="960" dy="24">state</tspan></text>
        
          <line x1="840" y1="552" x2="360" y2="552" stroke="#3a567a" stroke-width="3" marker-end="url(#arrow)" />
          <rect x="378" y="524" width="444" height="26" rx="13" fill="#f3f7fb" />
          <text x="600" y="540" text-anchor="middle" font-size="13" font-weight="600" fill="#445875" ><tspan x="600" dy="0">Report internal updates</tspan></text>
        
          <line x1="360" y1="614" x2="1080" y2="614" stroke="#3a567a" stroke-width="3" marker-end="url(#arrow)" />
          <rect x="378" y="586" width="684" height="26" rx="13" fill="#f3f7fb" />
          <text x="720" y="602" text-anchor="middle" font-size="13" font-weight="600" fill="#445875" ><tspan x="720" dy="0">Persist lifecycle event</tspan></text>
        
    
  </g>
</svg>
